<?xml version="1.0" standalone="no"?><!-- Generator: Gravit.io --><svg xmlns="http://www.w3.org/2000/svg" xmlns:xlink="http://www.w3.org/1999/xlink" style="isolation:isolate" viewBox="0 0 512 512" width="512" height="512"><defs><clipPath id="_clipPath_DhTQmi40k62zh3LSYEOUDIuNqdlXfobQ"><rect width="512" height="512"/></clipPath></defs><g clip-path="url(#_clipPath_DhTQmi40k62zh3LSYEOUDIuNqdlXfobQ)"><path d=" M 255.9 326.8 L 255.9 326.8 L 255.9 326.8 Q 239.7 326.8 226.5 320.6 L 226.5 320.6 L 226.5 320.6 Q 213.3 314.4 203.9 304.3 L 203.9 304.3 L 203.9 304.3 Q 194.5 294.2 189.3 281.2 L 189.3 281.2 L 189.3 281.2 Q 184.1 268.2 184.1 254.4 L 184.1 254.4 L 184.1 254.4 Q 184.1 240.4 189.5 227.4 L 189.5 227.4 L 189.5 227.4 Q 194.9 214.4 204.6 204.5 L 204.6 204.5 L 204.6 204.5 Q 214.3 194.6 227.6 188.7 L 227.6 188.7 L 227.6 188.7 Q 240.9 182.8 256.7 182.8 L 256.7 182.8 L 256.7 182.8 Q 272.9 182.8 286.1 189 L 286.1 189 L 286.1 189 Q 299.3 195.2 308.7 205.4 L 308.7 205.4 L 308.7 205.4 Q 318.1 215.6 323.2 228.6 L 323.2 228.6 L 323.2 228.6 Q 328.3 241.6 328.3 255.2 L 328.3 255.2 L 328.3 255.2 Q 328.3 269.2 322.9 282.1 L 322.9 282.1 L 322.9 282.1 Q 317.5 295 307.9 304.9 L 307.9 304.9 L 307.9 304.9 Q 298.3 314.8 285 320.8 L 285 320.8 L 285 320.8 Q 271.7 326.8 255.9 326.8 Z  M 223.7 254.8 L 223.7 254.8 L 223.7 254.8 Q 223.7 262 225.7 268.7 L 225.7 268.7 L 225.7 268.7 Q 227.7 275.4 231.7 280.6 L 231.7 280.6 L 231.7 280.6 Q 235.7 285.8 241.8 289 L 241.8 289 L 241.8 289 Q 247.9 292.2 256.3 292.2 L 256.3 292.2 L 256.3 292.2 Q 264.7 292.2 270.9 288.9 L 270.9 288.9 L 270.9 288.9 Q 277.1 285.6 281 280.3 L 281 280.3 L 281 280.3 Q 284.9 275 286.8 268.2 L 286.8 268.2 L 286.8 268.2 Q 288.7 261.4 288.7 254.4 L 288.7 254.4 L 288.7 254.4 Q 288.7 247.2 286.7 240.5 L 286.7 240.5 L 286.7 240.5 Q 284.7 233.8 280.6 228.7 L 280.6 228.7 L 280.6 228.7 Q 276.5 223.6 270.4 220.5 L 270.4 220.5 L 270.4 220.5 Q 264.3 217.4 256.1 217.4 L 256.1 217.4 L 256.1 217.4 Q 247.7 217.4 241.6 220.6 L 241.6 220.6 L 241.6 220.6 Q 235.5 223.8 231.5 229.1 L 231.5 229.1 L 231.5 229.1 Q 227.5 234.4 225.6 241.1 L 225.6 241.1 L 225.6 241.1 Q 223.7 247.8 223.7 254.8 Z  M 338.9 203.6 L 338.9 203.6 L 338.9 203.6 Q 338.9 193.8 345.5 187.3 L 345.5 187.3 L 345.5 187.3 Q 352.1 180.8 362.7 180.8 L 362.7 180.8 L 362.7 180.8 Q 373.3 180.8 379.9 187.3 L 379.9 187.3 L 379.9 187.3 Q 386.5 193.8 386.5 203.6 L 386.5 203.6 L 386.5 203.6 Q 386.5 215 379.9 221.7 L 379.9 221.7 L 379.9 221.7 Q 373.3 228.4 362.7 228.4 L 362.7 228.4 L 362.7 228.4 Q 352.1 228.4 345.5 221.5 L 345.5 221.5 L 345.5 221.5 Q 338.9 214.6 338.9 203.6 Z  M 358.1 200.2 L 358.1 200.2 L 358.1 200.2 Q 356.3 202 356.3 204.6 L 356.3 204.6 L 356.3 204.6 Q 356.3 207.2 358.1 209 L 358.1 209 L 358.1 209 Q 360.1 211 362.7 211 L 362.7 211 L 362.7 211 Q 365.5 211 367.1 209 L 367.1 209 L 367.1 209 Q 368.1 208.2 368.5 206.9 L 368.5 206.9 L 368.5 206.9 Q 368.9 205.6 368.9 204.6 L 368.9 204.6 L 368.9 204.6 Q 368.9 201.8 367.1 200.2 L 367.1 200.2 L 367.1 200.2 Q 366.3 199.2 365.1 198.8 L 365.1 198.8 L 365.1 198.8 Q 363.9 198.4 362.7 198.4 L 362.7 198.4 L 362.7 198.4 Q 359.9 198.4 358.1 200.2 Z  M 462.1 333.6 L 413.1 333.6 L 413.1 303.6 L 427.1 303.6 L 427.1 207.6 L 413.1 207.6 L 413.1 177.6 L 462.1 177.6 L 462.1 333.6 Z  M 99.3 333.6 L 50.3 333.6 L 50.3 177.6 L 99.3 177.6 L 99.3 207.6 L 85.3 207.6 L 85.3 303.6 L 99.3 303.6 L 99.3 333.6 Z " fill-rule="evenodd" fill="rgb(0,0,0)"/></g></svg>